<?xml version="1.0" encoding="utf-8"?><!-- Uploaded to: SVG Repo, www.svgrepo.com, Generator: SVG Repo Mixer Tools -->
<svg width="800px" height="800px" viewBox="0 0 24 24" fill="none" xmlns="http://www.w3.org/2000/svg">
<path d="M13.5 16.5854C13.5 17.4138 12.8284 18.0854 12 18.0854C11.1716 18.0854 10.5 17.4138 10.5 16.5854C10.5 15.7569 11.1716 15.0854 12 15.0854C12.8284 15.0854 13.5 15.7569 13.5 16.5854Z" fill="coral"/>
<path fill-rule="evenodd" clip-rule="evenodd" d="M5.94209 10.0005C5.93921 9.87333 5.9375 9.73733 5.9375 9.59375C5.9375 8.70739 6.00254 7.50382 6.27381 6.28307C6.54278 5.07271 7.03242 3.76302 7.94009 2.74189C8.8791 1.6855 10.2132 1 12 1C13.7868 1 15.1209 1.6855 16.0599 2.74189C16.9676 3.76302 17.4572 5.07271 17.7262 6.28307C17.9975 7.50382 18.0625 8.70739 18.0625 9.59375C18.0625 9.73733 18.0608 9.87333 18.0579 10.0005C19.688 10.0314 21 11.3625 21 13V20C21 21.6569 19.6569 23 18 23H6C4.34315 23 3 21.6569 3 20V13C3 11.3625 4.31196 10.0314 5.94209 10.0005ZM16.0573 10C16.0605 9.87465 16.0625 9.73868 16.0625 9.59375C16.0625 8.79261 16.0025 7.74618 15.7738 6.71693C15.5428 5.67729 15.1574 4.73698 14.5651 4.07061C14.0041 3.4395 13.2132 3 12 3C10.7868 3 9.9959 3.4395 9.43491 4.07061C8.84258 4.73698 8.45722 5.67729 8.22619 6.71693C7.99747 7.74618 7.9375 8.79261 7.9375 9.59375C7.9375 9.73868 7.93946 9.87465 7.94265 10H16.0573ZM19 13C19 12.4477 18.5523 12 18 12H6C5.44772 12 5 12.4477 5 13V20C5 20.5523 5.44772 21 6 21H18C18.5523 21 19 20.5523 19 20V13Z" fill="coral"/>
</svg>